# xmcd
# 
# Track frame offsets:
#     150
#     20205
#     31005
#     53252
#     65535
#     83395
#     99787
#     116425
#     136920
#     145855
# 
# Disc length: 2178
# 
# Revision: 1
# Processed by: cddbd v1.5.2PL0 Copyright (c) Steve Scherf et al.
# Submitted via: fre:ac v1.0.27
# 
DISCID=6f08800a
DTITLE=The Black Angels - Phosphene Dream
DYEAR=2010
DGENRE=Atmospheric/Psychedelic Rock
TTITLE0=Bad Vibrations
TTITLE1=Haunting at 1300 McKinley
TTITLE2=Yellow Elevator #2
TTITLE3=Sunday Afternoon
TTITLE4=River of Blood
TTITLE5=Entrance Song
TTITLE6=Phosphene Dream
TTITLE7=True Believers
TTITLE8=Telephone
TTITLE9=The Sniper
EXTD=
EXTT0=
EXTT1=
EXTT2=
EXTT3=
EXTT4=
EXTT5=
EXTT6=
EXTT7=
EXTT8=
EXTT9=
PLAYORDER=
